HIERARCHY
ROOT Hips
{
	OFFSET 0.00000 0.00000 0.00000
	CHANNELS 6 Xposition Yposition Zposition Yrotation Zrotation Xrotation 
	JOINT Lumbar
	{
		OFFSET 0 0 0
		CHANNELS 3 Zrotation Xrotation Yrotation
		JOINT Neck
		{
			OFFSET 0.00 0.2701 0.00
			CHANNELS 3 Zrotation Xrotation Yrotation
			End Site
			{
				OFFSET 0.00 0.1379 0.00
			}
		}
		JOINT RightShoulder
		{
			OFFSET 0.0119 0.2289 0.1181
			CHANNELS 3 Zrotation Xrotation Yrotation
			JOINT RightElbow
			{
				OFFSET 0.00 -0.1475 0.00
				CHANNELS 2 Zrotation Yrotation
				JOINT RightWrist
				{
					OFFSET 0.00 -0.1605 0.00
					CHANNELS 2 Zrotation Xrotation
					End Site
					{
						OFFSET 0.0040 -0.1068 0.0006
					}
				}
			}
		}
		JOINT LeftShoulder
		{
			OFFSET 0.0119 0.2289 -0.1181
			CHANNELS 3 Zrotation Xrotation Yrotation
			JOINT LeftElbow
			{
				OFFSET 0.00 -0.1475 0.00
				CHANNELS 2 Zrotation Yrotation
				JOINT LeftWrist
				{
					OFFSET 0.00 -0.1605 0.00
					CHANNELS 2 Zrotation Xrotation
					End Site
					{
						OFFSET 0.0040 -0.1068 -0.0006
					}
				}
			}
		}
	}
	JOINT RightHip
	{
		OFFSET 0.0316 -0.0424 0.0458
		CHANNELS 3 Zrotation Xrotation Yrotation
		JOINT RightKnee
		{
			OFFSET 0.00 -0.2438 0.00
			CHANNELS 1 Zrotation
			JOINT RightAnkle
			{
				OFFSET 0.00 -0.2449 0.00
				CHANNELS 3 Zrotation Xrotation Yrotation
				End Site
				{
					OFFSET 0.1237 -0.0542 0.0051
				}
			}
		}
	}
	JOINT LeftHip
	{
		OFFSET 0.0316 -0.0424 -0.0458
		CHANNELS 3 Zrotation Xrotation Yrotation
		JOINT LeftKnee
		{
			OFFSET 0.00 -0.2438 0.00
			CHANNELS 1 Zrotation
			JOINT LeftAnkle
			{
				OFFSET 0.00 -0.2449 0.00
				CHANNELS 3 Zrotation Xrotation Yrotation
				End Site
				{
					OFFSET 0.1237 -0.0542 -0.0051
				}
			}
		}
	}
}
MOTION
Frames: 32
Frame Time: 0.02
0.02022 -0.5703 0.40884 -269.27262 6.16103 -1.74271 -17.35603 4.657 -1.74713 -18.14625 5.03497 -0.83079 37.43848 8.29041 23.59386 35.1997 103.99905 -19.46176 -8.42952 33.91952 -2.64792 -19.25367 34.93773 -104.267 -15.79929 9.43835 130.40519 -34.09099 -31.76895 -121.30666 9.50151 3.26584 7.28528 130.40519 34.09099 25.6626 -123.87643 13.77995 -35.61414 -17.13313
0.0202 -0.57031 0.40884 -269.28244 6.31931 -1.74036 -17.2695 4.58454 -1.53287 -18.50412 5.20061 -0.83079 36.15626 7.76104 22.38961 36.36023 102.97464 -19.18507 -8.50186 32.71797 -2.73264 -17.89445 35.69599 -103.24196 -15.73519 9.07062 130.40519 -34.09099 -31.4768 -121.37533 8.74689 3.7207 7.78726 130.40519 34.09099 25.42586 -123.8947 13.21885 -35.71358 -17.16659
0.0202 -0.5703 0.40885 -269.29627 6.47719 -1.73119 -17.1145 4.49967 -1.34259 -18.91182 5.31252 -0.83079 34.85173 7.25914 21.3319 37.27923 100.45522 -18.56686 -8.64856 31.57502 -2.85713 -16.71021 36.13382 -100.59818 -15.19429 8.52092 130.40519 -34.09099 -31.16226 -121.46396 7.99346 4.29864 8.30868 130.40519 34.09099 25.17441 -123.9181 12.73727 -35.68627 -17.15494
0.02019 -0.57031 0.40887 -269.307 6.63825 -1.72571 -16.99012 4.42229 -1.15031 -19.27798 5.43833 -0.83079 33.57686 6.75141 20.24994 38.26257 98.71304 -18.13004 -8.73962 30.42331 -2.95823 -15.48746 36.67839 -98.77933 -14.87877 8.04069 130.40519 -34.09099 -30.86551 -121.53788 7.2259 4.79602 8.79113 130.40519 34.09099 24.92863 -123.93955 12.19855 -35.72152 -17.16558
0.02017 -0.57029 0.40884 -269.32266 6.78792 -1.71781 -16.86995 4.33679 -0.91842 -19.72673 5.60972 -0.83079 32.21333 6.2094 18.9905 39.44957 96.59909 -17.593 -8.90766 29.1858 -3.08506 -14.07319 37.39295 -96.64685 -14.54259 7.60964 130.40519 -34.09098 -30.53521 -121.63586 6.51145 5.39656 9.40142 130.40519 34.09099 24.68409 -123.95996 11.73806 -35.74713 -17.17258
0.02018 -0.57033 0.4089 -269.32962 6.96151 -1.71335 -16.72407 4.26536 -0.77542 -20.01399 5.67316 -0.83079 31.03195 5.74839 18.13854 40.14968 94.88792 -17.18381 -8.94295 28.14629 -3.16718 -13.10754 37.67549 -94.75765 -14.13485 7.0418 130.40519 -34.09098 -30.26889 -121.68927 5.6866 5.81291 9.75219 130.40519 34.09099 24.43433 -123.9835 11.13761 -35.75618 -17.17426
0.02031 -0.57052 0.4092 -269.30604 7.19249 -1.71946 -16.52264 4.2362 -0.87315 -19.8469 5.44889 -0.83079 30.35518 5.49623 18.33278 39.57243 94.66554 -17.15931 -8.54125 27.62289 -3.10742 -13.32547 36.83754 -93.94885 -13.58507 6.06184 130.4052 -34.09101 -30.19792 -121.60371 4.57637 5.6762 9.35137 130.40519 34.09099 24.1768 -124.01497 10.12751 -35.77742 -17.18047
0.02048 -0.57077 0.4096 -269.27457 7.44941 -1.72928 -16.29785 4.22168 -1.05966 -19.51539 5.118 -0.83079 29.86442 5.32718 18.939 38.50994 94.89392 -17.28257 -8.01323 27.30136 -3.0022 -13.99383 35.57562 -93.42812 -12.98696 4.96437 130.40517 -34.09095 -30.18966 -121.47458 3.35154 5.35242 8.69338 130.40519 34.09099 23.91392 -124.04938 8.97429 -35.77994 -17.18086
0.02062 -0.571 0.40995 -269.25031 7.69921 -1.73785 -16.08401 4.20017 -1.20499 -19.25518 4.83772 -0.83079 29.29138 5.12582 19.3846 37.66343 94.90109 -17.37031 -7.58064 26.89892 -2.92306 -14.46632 34.51143 -92.76022 -12.44933 3.97338 130.40522 -34.09103 -30.14484 -121.37226 2.16791 5.12373 8.17306 130.40519 34.09099 23.65266 -124.0818 7.89263 -35.77232 -17.17815
0.02078 -0.57121 0.4103 -269.2109 7.92715 -1.74462 -15.86548 4.17935 -1.35437 -19.00755 4.54709 -0.83079 28.70641 4.90117 19.72452 36.82998 94.9194 -17.31372 -6.99582 26.45126 -2.82302 -14.90651 33.41682 -92.1115 -11.73733 2.7552 130.40521 -34.09101 -30.13465 -121.24059 1.0328 4.85711 7.56763 130.40519 34.09099 23.39643 -124.11657 6.79292 -35.83979 -17.19836
0.02092 -0.57147 0.41069 -269.20108 8.20952 -1.75575 -15.65324 4.1611 -1.51644 -18.69861 4.2526 -0.83079 28.19271 4.74583 20.37867 35.85452 95.04905 -17.59617 -6.68973 26.14675 -2.75452 -15.51976 32.28657 -91.50468 -11.37756 1.98061 130.40504 -34.09075 -30.06572 -121.16003 -0.2339 4.62306 7.07568 130.40519 34.09099 23.12593 -124.14784 5.68717 -35.74726 -17.16981
0.02098 -0.57185 0.41115 -269.27553 8.61307 -1.78116 -15.45464 4.14309 -1.68891 -18.22244 3.98057 -0.83079 27.81518 4.75021 21.81382 34.62917 95.30657 -18.78654 -7.24899 26.1735 -2.79016 -16.48948 31.1839 -91.01727 -12.05208 2.49519 130.40557 -34.09155 -29.83464 -121.22554 -1.80287 4.52618 6.97945 130.4052 34.091 22.84036 -124.1619 4.67365 -35.22339 -17.00899
0.02101 -0.57228 0.41165 -269.37999 9.07528 -1.8102 -15.26566 4.1278 -1.87153 -17.69822 3.70739 -0.83079 27.50657 4.82373 23.54706 33.27467 95.67742 -20.31133 -8.08136 26.33979 -2.85812 -17.61739 30.05748 -90.55987 -13.0759 3.45402 130.40474 -34.09031 -29.53934 -121.34443 -3.50327 4.46674 7.00166 130.40519 34.09095 22.53612 -124.17357 3.64466 -34.53805 -16.79884
0.02105 -0.57271 0.41214 -269.47015 9.52487 -1.83566 -15.07825 4.11353 -2.05132 -17.21939 3.43023 -0.83079 27.17563 4.87263 25.13451 31.96474 96.0537 -21.6819 -8.745 26.45163 -2.90674 -18.68152 28.92887 -90.04341 -13.90931 4.18772 130.40506 -34.09076 -29.26369 -121.44321 -5.16924 4.38969 6.95792 130.4052 34.09101 22.22576 -124.19076 2.57413 -33.92418 -16.61149
0.02112 -0.57306 0.41262 -269.56239 9.91389 -1.86973 -14.86321 4.0904 -2.22667 -16.63092 3.16781 -0.83079 26.81056 4.89471 26.78221 30.69635 96.21879 -23.07456 -9.58982 26.53293 -2.97208 -19.73416 27.83989 -89.71265 -14.87392 5.01739 130.40722 -34.09408 -29.03123 -121.52515 -6.74559 4.31235 6.96011 130.40519 34.091 21.978 -124.18931 1.70441 -33.32019 -16.42431
0.02113 -0.57358 0.41313 -269.65805 10.44542 -1.88628 -14.71044 4.08595 -2.41258 -16.26719 2.87645 -0.83079 26.53387 4.98927 28.36707 29.31837 96.82691 -24.48909 -10.1273 26.70806 -3.01256 -20.8337 26.66855 -89.01762 -15.64954 5.75159 130.40012 -34.08332 -28.69178 -121.65268 -8.52178 4.24238 6.89348 130.40516 34.09079 21.59408 -124.22613 0.41376 -32.65434 -16.22264
0.021 -0.57449 0.4137 -269.75139 11.33189 -1.85698 -14.7091 4.13413 -2.62381 -16.48758 2.50139 -0.83079 26.45418 5.25539 29.72577 27.66233 98.78704 -25.96559 -9.71896 27.1096 -2.96232 -22.09321 25.27644 -87.14217 -15.81122 6.13752 130.41167 -34.10068 -28.08129 -121.91696 -10.96059 4.22476 6.65047 130.40527 34.0914 20.85089 -124.36875 -2.02078 -31.88119 -16.01208
0.02083 -0.57557 0.41431 -269.84794 12.36365 -1.80918 -14.77334 4.20051 -2.84478 -16.94516 2.09911 -0.83079 26.46527 5.59347 31.00436 25.90508 101.1585 -27.43675 -8.99803 27.59954 -2.88902 -23.37708 23.8048 -84.92515 -15.77081 6.40865 130.40604 -34.09254 -27.36392 -122.22129 -13.57003 4.20757 6.32888 130.4051 34.09051 19.96924 -124.55001 -4.87537 -31.04454 -15.78359
0.02067 -0.57659 0.41491 -269.94598 13.34526 -1.76771 -14.81995 4.25747 -3.06216 -17.32716 1.71178 -0.83079 26.45428 5.90627 32.30507 24.20015 103.23616 -28.85439 -8.44094 28.04697 -2.8355 -24.60495 22.37057 -82.97783 -15.82928 6.71653 130.37907 -34.05113 -26.68885 -122.49148 -16.00533 4.16276 6.01479 130.40515 34.09075 19.14289 -124.71385 -7.55302 -30.22444 -15.5528
0.02053 -0.57754 0.41546 -270.03281 14.26391 -1.73552 -14.81661 4.31982 -3.27783 -17.57328 1.31113 -0.83079 26.36686 6.19164 33.67956 22.4602 105.7665 -30.51812 -7.80202 28.509 -2.74292 -26.03732 20.92778 -80.56438 -15.87581 7.10285 130.47386 -34.19477 -26.03598 -122.82972 -18.84765 4.23055 5.81793 130.40562 34.09336 18.34748 -124.87704 -10.19324 -29.46068 -15.37065
0.02035 -0.57867 0.41614 -270.14315 15.3449 -1.6791 -14.93134 4.37471 -3.49749 -18.15703 0.93467 -0.83079 26.45675 6.54851 34.8739 20.7753 107.45356 -31.66597 -7.25494 28.96008 -2.72693 -27.0361 19.48693 -79.02029 -15.88764 7.2954 130.31253 -33.9523 -25.31494 -123.0364 -20.88782 4.06891 5.36405 130.40416 34.0853 17.45574 -125.05076 -12.98481 -28.55402 -15.07571
0.02006 -0.58023 0.41719 -270.31915 16.85883 -1.56434 -15.36767 4.409 -3.74075 -19.63491 0.60708 -0.83079 27.03403 7.09986 35.61662 19.23262 106.68067 -31.36738 -7.04362 29.35342 -2.91752 -26.93279 18.05185 -80.13661 -15.91507 6.95564 129.43653 -32.60488 -24.4097 -122.85977 -20.61035 3.22655 4.15606 130.40644 34.09788 16.32735 -125.24565 -16.32269 -27.38828 -14.54802
0.01973 -0.58196 0.41838 -270.5181 18.52605 -1.4252 -15.91777 4.43442 -3.985 -21.43999 0.30922 -0.83079 27.7817 7.71724 36.1732 17.75725 105.05057 -30.55179 -6.93294 29.73137 -3.18721 -26.37682 16.62709 -82.11002 -15.90375 6.42698 128.30689 -30.87904 -23.44415 -122.55223 -19.52976 2.16171 2.70317 130.40555 34.09294 15.10915 -125.45033 -19.76045 -26.06746 -13.89862
0.01943 -0.58359 0.4195 -270.70561 20.11082 -1.29442 -16.40887 4.46082 -4.21874 -23.08374 0.01406 -0.83079 28.43889 8.29485 36.79774 16.27284 103.83183 -29.98726 -6.77132 30.12165 -3.42816 -25.95548 15.20785 -83.57081 -15.86458 5.99959 127.29933 -29.35482 -22.52083 -122.30946 -18.85696 1.22973 1.40389 130.39963 34.06028 13.93332 -125.64847 -22.99405 -24.72941 -13.25034
0.01909 -0.58531 0.42065 -270.89821 21.7588 -1.17394 -16.93545 4.50027 -4.4947 -24.79298 -0.34987 -0.83079 29.15768 8.91762 37.49471 14.68867 102.53339 -29.35747 -6.62163 30.49955 -3.64024 -25.81765 13.73491 -85.5251 -16.00016 5.50479 126.25694 -27.70092 -21.5305 -122.04076 -18.01218 0.1646 -0.07558 130.41919 34.16816 12.74026 -125.85345 -26.89078 -23.72589 -12.81045
0.01882 -0.58689 0.42178 -271.08473 23.30446 -1.02713 -17.41132 4.51078 -4.68357 -26.43553 -0.56391 -0.83079 29.78328 9.45931 37.99155 13.33604 101.19464 -28.73749 -6.47415 30.88969 -3.92862 -25.00348 12.38712 -86.67749 -15.77812 5.1052 125.23397 -26.23218 -20.66765 -121.80082 -17.32928 -0.67715 -1.23827 130.38721 33.9918 11.57088 -126.05019 -29.45196 -22.03156 -11.93258
0.01877 -0.58811 0.42285 -271.25631 24.57363 -0.8081 -17.74491 4.43833 -4.62491 -27.85521 -0.3641 -0.83079 30.14409 9.77499 38.03429 12.55385 99.92841 -28.29945 -6.31601 31.3916 -4.43331 -22.24148 11.2995 -85.25002 -14.46493 5.02921 124.26747 -25.3279 -20.16517 -121.61764 -17.31731 -0.83782 -1.45391 130.1936 32.9242 10.42563 -126.1858 -28.0553 -18.1027 -9.65946
0.0188 -0.58919 0.4239 -271.41951 25.72576 -0.56457 -18.01883 4.33781 -4.47962 -29.18794 -0.01537 -0.83079 30.39782 10.00339 37.8736 12.01376 98.65335 -27.88402 -6.15622 31.89226 -5.00736 -18.84892 10.35364 -83.01487 -12.81371 5.05291 123.3402 -24.63038 -19.7948 -121.47796 -17.48984 -0.76773 -1.34411 129.95169 31.59024 9.31902 -126.31941 -25.34961 -13.54855 -6.98759
0.01879 -0.5903 0.42496 -271.58167 26.90202 -0.33591 -18.30245 4.25366 -4.37864 -30.53166 0.26023 -0.83079 30.67832 10.26269 37.77027 11.39639 97.39794 -27.43938 -5.9942 32.3441 -5.53362 -15.87146 9.39733 -81.25576 -11.39441 5.02266 122.43417 -23.86432 -19.3687 -121.35397 -17.55919 -0.80985 -1.39121 129.74543 30.45285 8.23785 -126.47725 -23.40876 -9.52522 -4.64298
0.01878 -0.59154 0.42603 -271.76529 28.20599 -0.0905 -18.66198 4.1545 -4.25758 -32.00583 0.55867 -0.83079 31.05947 10.56303 37.80404 10.63862 96.04923 -27.05578 -5.85004 33.00308 -6.13201 -12.33981 8.21235 -79.0739 -9.64949 5.02424 121.35525 -22.97823 -18.92227 -121.0756 -17.68278 -0.82917 -1.40941 129.48242 29.00254 6.97512 -126.53664 -20.77569 -4.47105 -1.68793
0.01879 -0.59248 0.42708 -271.90169 29.2147 0.12535 -18.84981 4.07936 -4.15684 -33.1853 0.84601 -0.83079 31.20054 10.75419 37.51199 10.23548 94.90091 -26.55823 -5.66452 33.23164 -6.59472 -9.81326 7.53857 -77.56002 -8.49499 4.98316 120.64792 -22.39555 -18.55028 -121.13099 -17.74701 -0.83777 -1.40669 129.32468 28.13276 6.09692 -126.80093 -19.24521 -1.39749 0.10179
0.01886 -0.59266 0.42815 -271.91142 29.43022 0.25492 -18.5593 4.08371 -4.14127 -33.55304 1.05277 -0.83079 30.7283 10.68254 36.32337 10.70447 94.33189 -25.73409 -5.38784 32.2623 -6.67308 -10.26523 8.23008 -78.16775 -9.12414 4.82285 120.96873 -22.6083 -18.35311 -122.0961 -17.61131 -0.87653 -1.4298 129.48242 29.00254 6.30708 -127.62707 -21.31181 -4.12079 -1.5376
